<?xml version="1.0" encoding="UTF-8"?>
<svg xmlns="http://www.w3.org/2000/svg" xmlns:xlink="http://www.w3.org/1999/xlink" width="300px" height="71px" viewBox="0 0 67 16" version="1.1">
<g id="surface1">
<path style=" stroke:none;fill-rule:nonzero;fill:rgb(94.509804%,39.215686%,39.215686%);fill-opacity:1;" d="M 8.777344 0 L 8.777344 8.476562 L 9.640625 8.476562 L 9.640625 10.65625 L 6.433594 10.65625 L 6.433594 9.785156 C 5.898438 10.476562 5.1875 10.8125 4.246094 10.8125 C 2.082031 10.8125 0.226562 8.886719 0.226562 6.601562 C 0.226562 4.339844 2.058594 2.464844 4.167969 2.464844 C 5.035156 2.464844 5.773438 2.746094 6.433594 3.363281 L 6.433594 2.183594 L 5.570312 2.183594 L 5.570312 0 Z M 6.511719 6.601562 C 6.511719 5.546875 5.644531 4.699219 4.601562 4.699219 C 3.558594 4.699219 2.667969 5.574219 2.667969 6.652344 C 2.667969 7.730469 3.535156 8.578125 4.578125 8.578125 C 5.621094 8.578125 6.511719 7.679688 6.511719 6.601562 Z M 6.511719 6.601562 "/>
<path style=" stroke:none;fill-rule:nonzero;fill:rgb(94.509804%,39.215686%,39.215686%);fill-opacity:1;" d="M 13.789062 2.621094 L 13.789062 8.476562 L 14.628906 8.476562 L 14.628906 10.65625 L 10.609375 10.65625 L 10.609375 8.476562 L 11.449219 8.476562 L 11.449219 4.800781 L 10.609375 4.800781 L 10.609375 2.621094 Z M 13.789062 0 L 13.789062 2.183594 L 11.449219 2.183594 L 11.449219 0 Z M 13.789062 0 "/>
<path style=" stroke:none;fill-rule:nonzero;fill:rgb(94.509804%,39.215686%,39.215686%);fill-opacity:1;" d="M 21.578125 2.621094 L 21.578125 4.878906 L 19.4375 4.878906 C 19.386719 4.417969 19.132812 4.1875 18.625 4.1875 C 18.191406 4.1875 17.886719 4.417969 17.886719 4.75 C 17.886719 5.109375 18.117188 5.289062 18.957031 5.523438 L 19.972656 5.828125 C 21.015625 6.136719 21.550781 6.523438 21.882812 7.191406 C 22.035156 7.5 22.113281 7.859375 22.113281 8.21875 C 22.113281 9.707031 20.914062 10.785156 19.210938 10.785156 C 18.34375 10.785156 17.808594 10.605469 17.199219 10.117188 L 17.199219 10.632812 L 15.597656 10.632812 L 15.597656 8.296875 L 17.863281 8.296875 C 17.964844 8.886719 18.269531 9.144531 18.828125 9.144531 C 19.3125 9.144531 19.644531 8.886719 19.644531 8.476562 C 19.644531 8.0625 19.414062 7.910156 18.523438 7.652344 C 17.046875 7.242188 16.945312 7.214844 16.460938 6.882812 C 15.800781 6.472656 15.417969 5.777344 15.417969 4.957031 C 15.417969 3.492188 16.613281 2.441406 18.292969 2.441406 C 19.109375 2.441406 19.542969 2.59375 20.023438 3.054688 L 20.023438 2.59375 L 21.578125 2.59375 Z M 21.578125 2.621094 "/>
<path style=" stroke:none;fill-rule:nonzero;fill:rgb(94.509804%,39.215686%,39.215686%);fill-opacity:1;" d="M 25.75 2.621094 L 25.75 3.542969 C 26.285156 2.800781 26.996094 2.464844 27.964844 2.464844 C 30.152344 2.464844 31.984375 4.367188 31.984375 6.675781 C 31.984375 8.910156 30.203125 10.8125 28.117188 10.8125 C 27.148438 10.8125 26.617188 10.605469 25.75 9.914062 L 25.75 11.222656 L 26.589844 11.222656 L 26.589844 13.433594 L 22.570312 13.433594 L 22.570312 11.222656 L 23.433594 11.222656 L 23.433594 4.800781 L 22.570312 4.800781 L 22.570312 2.621094 Z M 29.617188 6.625 C 29.617188 5.546875 28.753906 4.699219 27.660156 4.699219 C 26.566406 4.699219 25.675781 5.574219 25.675781 6.652344 C 25.675781 7.730469 26.566406 8.578125 27.660156 8.578125 C 28.753906 8.578125 29.617188 7.703125 29.617188 6.625 Z M 29.617188 6.625 "/>
<path style=" stroke:none;fill-rule:nonzero;fill:rgb(94.509804%,39.215686%,39.215686%);fill-opacity:1;" d="M 41.527344 4.800781 L 41.527344 8.476562 L 42.367188 8.476562 L 42.367188 10.65625 L 39.1875 10.65625 L 39.1875 9.964844 C 38.652344 10.582031 37.914062 10.890625 37 10.890625 C 34.8125 10.890625 32.976562 8.988281 32.976562 6.675781 C 32.976562 4.316406 34.835938 2.335938 37.101562 2.335938 C 37.992188 2.335938 38.679688 2.671875 39.214844 3.363281 L 39.214844 2.59375 L 42.394531 2.59375 L 42.394531 4.777344 L 41.527344 4.777344 Z M 39.1875 6.601562 C 39.1875 5.523438 38.347656 4.675781 37.277344 4.675781 C 36.210938 4.675781 35.34375 5.546875 35.371094 6.625 C 35.371094 7.703125 36.210938 8.550781 37.253906 8.550781 C 38.324219 8.578125 39.1875 7.703125 39.1875 6.601562 Z M 39.1875 6.601562 "/>
<path style=" stroke:none;fill-rule:nonzero;fill:rgb(94.509804%,39.215686%,39.215686%);fill-opacity:1;" d="M 46.773438 4.800781 L 46.773438 8.476562 L 47.917969 8.476562 L 47.917969 10.65625 L 44.429688 10.65625 L 44.429688 4.800781 L 43.335938 4.800781 L 43.335938 2.621094 L 44.429688 2.621094 L 44.53125 0 L 46.875 0 L 46.773438 2.621094 L 47.890625 2.621094 L 47.890625 4.800781 Z M 46.773438 4.800781 "/>
<path style=" stroke:none;fill-rule:nonzero;fill:rgb(94.509804%,39.215686%,39.215686%);fill-opacity:1;" d="M 56.746094 2.621094 L 56.746094 5.496094 L 54.558594 5.496094 C 54.101562 4.929688 53.644531 4.699219 53.03125 4.699219 C 52.015625 4.699219 51.199219 5.546875 51.199219 6.625 C 51.199219 7.730469 52.015625 8.578125 53.082031 8.578125 C 53.695312 8.578125 54.175781 8.320312 54.433594 7.832031 L 57.027344 7.832031 C 56.492188 9.65625 54.863281 10.890625 53.007812 10.890625 C 50.691406 10.890625 48.808594 8.964844 48.808594 6.601562 C 48.808594 4.289062 50.640625 2.363281 52.804688 2.363281 C 53.542969 2.363281 54.152344 2.644531 54.710938 3.210938 L 54.710938 2.621094 Z M 56.746094 2.621094 "/>
<path style=" stroke:none;fill-rule:nonzero;fill:rgb(94.509804%,39.215686%,39.215686%);fill-opacity:1;" d="M 60.894531 0 L 60.894531 3.699219 C 61.429688 2.875 62.144531 2.464844 63.085938 2.464844 C 64.789062 2.464844 65.910156 3.828125 65.910156 5.90625 L 65.910156 8.476562 L 66.75 8.476562 L 66.75 10.65625 L 63.59375 10.65625 L 63.59375 6.472656 C 63.59375 5.265625 63.210938 4.777344 62.296875 4.777344 C 61.40625 4.777344 60.921875 5.34375 60.921875 6.394531 L 60.921875 8.476562 L 61.761719 8.476562 L 61.761719 10.65625 L 57.714844 10.65625 L 57.714844 8.476562 L 58.582031 8.476562 L 58.582031 2.183594 L 57.714844 2.183594 L 57.714844 0 Z M 60.894531 0 "/>
<path style=" stroke:none;fill-rule:nonzero;fill:rgb(66.27451%,67.058824%,67.45098%);fill-opacity:1;" d="M 35.191406 14.433594 L 35.191406 13.433594 L 35.855469 13.433594 L 35.855469 16.027344 L 35.191406 16.027344 L 35.191406 14.972656 L 34.226562 14.972656 L 34.226562 16.027344 L 33.5625 16.027344 L 33.5625 13.433594 L 34.226562 13.433594 L 34.226562 14.433594 Z M 35.191406 14.433594 "/>
<path style=" stroke:none;fill-rule:nonzero;fill:rgb(66.27451%,67.058824%,67.45098%);fill-opacity:1;" d="M 38.984375 13.996094 L 38.984375 14.433594 L 39.722656 14.433594 L 39.722656 15 L 38.984375 15 L 38.984375 15.433594 L 39.773438 15.433594 L 39.773438 16 L 38.324219 16 L 38.324219 13.433594 L 39.773438 13.433594 L 39.773438 13.996094 Z M 38.984375 13.996094 "/>
<path style=" stroke:none;fill-rule:nonzero;fill:rgb(66.27451%,67.058824%,67.45098%);fill-opacity:1;" d="M 42.878906 15.5625 L 42.699219 16 L 41.988281 16 L 42.980469 13.40625 L 43.71875 13.40625 L 44.683594 16 L 43.972656 16 L 43.792969 15.5625 Z M 43.335938 14.226562 L 43.054688 15.050781 L 43.617188 15.050781 Z M 43.335938 14.226562 "/>
<path style=" stroke:none;fill-rule:nonzero;fill:rgb(66.27451%,67.058824%,67.45098%);fill-opacity:1;" d="M 47.585938 15.433594 L 48.375 15.433594 L 48.375 16 L 46.898438 16 L 46.898438 13.433594 L 47.5625 13.433594 L 47.5625 15.433594 Z M 47.585938 15.433594 "/>
<path style=" stroke:none;fill-rule:nonzero;fill:rgb(66.27451%,67.058824%,67.45098%);fill-opacity:1;" d="M 51.605469 16 L 50.945312 16 L 50.945312 13.996094 L 50.386719 13.996094 L 50.386719 13.433594 L 52.140625 13.433594 L 52.140625 13.996094 L 51.582031 13.996094 L 51.582031 16 Z M 51.605469 16 "/>
<path style=" stroke:none;fill-rule:nonzero;fill:rgb(66.27451%,67.058824%,67.45098%);fill-opacity:1;" d="M 56.0625 14.433594 L 56.0625 13.433594 L 56.722656 13.433594 L 56.722656 16.027344 L 56.0625 16.027344 L 56.0625 14.972656 L 55.09375 14.972656 L 55.09375 16.027344 L 54.433594 16.027344 L 54.433594 13.433594 L 55.09375 13.433594 L 55.09375 14.433594 Z M 56.0625 14.433594 "/>
</g>
</svg>
