<?xml version="1.0" encoding="utf-8"?>
<!-- Generator: Adobe Illustrator 22.1.0, SVG Export Plug-In . SVG Version: 6.00 Build 0)  -->
<svg version="1.1" id="Layer_1" xmlns="http://www.w3.org/2000/svg" xmlns:xlink="http://www.w3.org/1999/xlink" x="0px" y="0px"
	 viewBox="0 0 261.5 62.3" style="enable-background:new 0 0 261.5 62.3;" xml:space="preserve">
<style type="text/css">
	.st0{fill:#F16464;}
	.st1{fill:#A9ABAC;}
</style>
<g id="XMLID_4_">
	<path id="XMLID_5_" class="st0" d="M33.6,0v33H37v8.5H24.4v-3.4c-2.1,2.7-4.9,4-8.6,4C7.3,42.1,0,34.6,0,25.7
		C0,16.9,7.2,9.6,15.5,9.6c3.4,0,6.3,1.1,8.9,3.5V8.5h-3.4V0H33.6z M24.7,25.7c0-4.1-3.4-7.4-7.5-7.4s-7.6,3.4-7.6,7.6
		c0,4.2,3.4,7.5,7.5,7.5S24.7,29.9,24.7,25.7z"/>
	<path id="XMLID_8_" class="st0" d="M53.3,10.2V33h3.3v8.5H40.8V33h3.3V18.7h-3.3v-8.5H53.3z M53.3,0v8.5h-9.2V0H53.3z"/>
	<path id="XMLID_26_" class="st0" d="M83.9,10.2V19h-8.4c-0.2-1.8-1.2-2.7-3.2-2.7c-1.7,0-2.9,0.9-2.9,2.2c0,1.4,0.9,2.1,4.2,3
		l4,1.2c4.1,1.2,6.2,2.7,7.5,5.3c0.6,1.2,0.9,2.6,0.9,4c0,5.8-4.7,10-11.4,10c-3.4,0-5.5-0.7-7.9-2.6v2h-6.3v-9.1h8.9
		c0.4,2.3,1.6,3.3,3.8,3.3c1.9,0,3.2-1,3.2-2.6c0-1.6-0.9-2.2-4.4-3.2c-5.8-1.6-6.2-1.7-8.1-3c-2.6-1.6-4.1-4.3-4.1-7.5
		c0-5.7,4.7-9.8,11.3-9.8c3.2,0,4.9,0.6,6.8,2.4v-1.8H83.9z"/>
	<path id="XMLID_29_" class="st0" d="M100.3,10.2v3.6c2.1-2.9,4.9-4.2,8.7-4.2c8.6,0,15.8,7.4,15.8,16.4c0,8.7-7,16.1-15.2,16.1
		c-3.8,0-5.9-0.8-9.3-3.5v5.1h3.3v8.6H87.8v-8.6h3.4v-25h-3.4v-8.5H100.3z M115.5,25.8c0-4.2-3.4-7.5-7.7-7.5s-7.8,3.4-7.8,7.6
		c0,4.2,3.5,7.5,7.8,7.5S115.5,30,115.5,25.8z"/>
	<path id="XMLID_32_" class="st0" d="M162.3,18.7V33h3.3v8.5h-12.5v-2.7c-2.1,2.4-5,3.6-8.6,3.6c-8.6,0-15.8-7.4-15.8-16.4
		c0-9.2,7.3-16.9,16.2-16.9c3.5,0,6.2,1.3,8.3,4v-3h12.5v8.5H162.3z M153.1,25.7c0-4.2-3.3-7.5-7.5-7.5c-4.2,0-7.6,3.4-7.5,7.6
		c0,4.2,3.3,7.5,7.4,7.5C149.7,33.4,153.1,30,153.1,25.7z"/>
	<path id="XMLID_35_" class="st0" d="M182.9,18.7V33h4.5v8.5h-13.7V18.7h-4.3v-8.5h4.3L174.1,0h9.2l-0.4,10.2h4.4v8.5H182.9z"/>
	<path id="XMLID_37_" class="st0" d="M222.1,10.2v11.2h-8.6c-1.8-2.2-3.6-3.1-6-3.1c-4,0-7.2,3.3-7.2,7.5c0,4.3,3.2,7.6,7.4,7.6
		c2.4,0,4.3-1,5.3-2.9h10.2c-2.1,7.1-8.5,11.9-15.8,11.9c-9.1,0-16.5-7.5-16.5-16.7c0-9,7.2-16.5,15.7-16.5c2.9,0,5.3,1.1,7.5,3.3
		v-2.3H222.1z"/>
	<path id="XMLID_39_" class="st0" d="M238.4,0v14.4c2.1-3.2,4.9-4.8,8.6-4.8c6.7,0,11.1,5.3,11.1,13.4v10h3.3v8.5H249V25.2
		c0-4.7-1.5-6.6-5.1-6.6c-3.5,0-5.4,2.2-5.4,6.3V33h3.3v8.5h-15.9V33h3.4V8.5h-3.4V0H238.4z"/>
</g>
<g id="XMLID_372_">
	<g>
		<path id="XMLID_127_" class="st1" d="M137.4,56.2v-3.9h2.6v10.1h-2.6v-4.1h-3.8v4.1H131V52.3h2.6v3.9H137.4z"/>
		<path id="XMLID_125_" class="st1" d="M152.3,54.5v1.7h2.9v2.2h-2.9v1.7h3.1v2.2h-5.7V52.3h5.7v2.2H152.3z"/>
		<path id="XMLID_122_" class="st1" d="M167.6,60.6l-0.7,1.7h-2.8l3.9-10.1h2.9l3.8,10.1h-2.8l-0.7-1.7H167.6z M169.4,55.4
			L169.4,55.4l-1.1,3.2h2.2L169.4,55.4z"/>
		<path id="XMLID_120_" class="st1" d="M186.1,60.1h3.1v2.2h-5.8V52.3h2.6V60.1z"/>
		<path id="XMLID_118_" class="st1" d="M201.9,62.3h-2.6v-7.8h-2.2v-2.2h6.9v2.2h-2.2V62.3z"/>
		<path id="XMLID_116_" class="st1" d="M219.4,56.2v-3.9h2.6v10.1h-2.6v-4.1h-3.8v4.1H213V52.3h2.6v3.9H219.4z"/>
	</g>
</g>
</svg>
